<?xml version="1.0" encoding="UTF-8"?>
<svg xmlns="http://www.w3.org/2000/svg" viewBox="0 0 64 64" role="img" aria-label="Determined — sharp">
  <defs>
    <linearGradient id="bg-pax35" x1="8" y1="8" x2="56" y2="56" gradientUnits="userSpaceOnUse">
      <stop offset="0%" stop-color="#FAFAFA"/>
      <stop offset="100%" stop-color="#E0E0E0"/>
    </linearGradient>
    <clipPath id="clip-pax35"><circle cx="32" cy="32" r="32"/></clipPath>
  </defs>
  <circle cx="32" cy="32" r="32" fill="url(#bg-pax35)"/>
  <g clip-path="url(#clip-pax35)">
    <ellipse cx="32" cy="58" rx="18" ry="10" fill="#4A5568" opacity=".18"/>
    <path d="M20 26c0-7 6-11 12-11s12 4 12 11v2H20v-2z" fill="#0D0D0D"/><path d="M18 28h28" stroke="#0D0D0D" stroke-width="5"/>
    <ellipse cx="32" cy="38" rx="14" ry="16" fill="#E0AC69"/>
    <ellipse cx="32" cy="40" rx="11" ry="13" fill="#E0AC69"/>
    <path d="M22 29l8-1M34 28l8 1" fill="none" stroke="#2C1810" stroke-width="1.6" stroke-linecap="round" opacity=".75"/><rect x="24" y="31.5" width="4" height="2.5" rx="1" fill="#2C1810"/><rect x="36" y="31.5" width="4" height="2.5" rx="1" fill="#2C1810"/><ellipse cx="32" cy="39" rx="2" ry="1.5" fill="#D4956A" opacity=".45"/><path d="M28 45h8" stroke="#B5654A" stroke-width="2" stroke-linecap="round"/>
    
    
    
  </g>
</svg>
