<?xml version="1.0" encoding="UTF-8"?>
<svg xmlns="http://www.w3.org/2000/svg" viewBox="0 0 64 64" role="img" aria-label="Adventurous — stubble">
  <defs>
    <linearGradient id="bg-pax42" x1="8" y1="8" x2="56" y2="56" gradientUnits="userSpaceOnUse">
      <stop offset="0%" stop-color="#FFF3E0"/>
      <stop offset="100%" stop-color="#FFCC80"/>
    </linearGradient>
    <clipPath id="clip-pax42"><circle cx="32" cy="32" r="32"/></clipPath>
  </defs>
  <circle cx="32" cy="32" r="32" fill="url(#bg-pax42)"/>
  <g clip-path="url(#clip-pax42)">
    <ellipse cx="32" cy="58" rx="18" ry="10" fill="#4A5568" opacity=".18"/>
    <path d="M19 27c0-9 5-14 13-14s13 5 13 14v4c-2-6-8-9-13-9s-11 3-13 9v-4z" fill="#2C1810"/>
    <ellipse cx="32" cy="38" rx="14" ry="16" fill="#BF8F60"/>
    <ellipse cx="32" cy="40" rx="11" ry="13" fill="#BF8F60"/>
    <path d="M21 27q5-2 9 0M34 27q5-2 9 0" fill="none" stroke="#2C1810" stroke-width="1.5" stroke-linecap="round" opacity=".6"/><path d="M24 32.5a3 3 0 006 0M34 32.5a3 3 0 006 0" fill="#2C1810"/><path d="M27 46q5 5 10 0" fill="none" stroke="#C0392B" stroke-width="2" stroke-linecap="round"/><ellipse cx="32" cy="39" rx="2" ry="1.5" fill="#D4956A" opacity=".45"/><path d="M25 43q7 7 14 0" fill="none" stroke="#B5654A" stroke-width="2" stroke-linecap="round"/>
    
    <path d="M22 42c2 8 7 12 10 12s8-4 10-12c-3 5-7 7-10 7s-7-2-10-7z" fill="#2C1810" opacity=".85"/>
    
  </g>
</svg>
