<?xml version="1.0" encoding="UTF-8"?>
<svg xmlns="http://www.w3.org/2000/svg" viewBox="0 0 64 64" role="img" aria-label="Friendly — warm smile">
  <defs>
    <linearGradient id="bg-pax02" x1="8" y1="8" x2="56" y2="56" gradientUnits="userSpaceOnUse">
      <stop offset="0%" stop-color="#FFF4E6"/>
      <stop offset="100%" stop-color="#FFD8A8"/>
    </linearGradient>
    <clipPath id="clip-pax02"><circle cx="32" cy="32" r="32"/></clipPath>
  </defs>
  <circle cx="32" cy="32" r="32" fill="url(#bg-pax02)"/>
  <g clip-path="url(#clip-pax02)">
    <ellipse cx="32" cy="58" rx="18" ry="10" fill="#4A5568" opacity=".18"/>
    <path d="M16 30c0-12 7-18 16-18s16 6 16 18v8c-4-10-12-14-16-14s-12 4-16 14v-8z" fill="#1A1A1A"/><path d="M14 26c3-6 10-10 18-10s15 4 18 10" fill="none" stroke="#1A1A1A" stroke-width="3"/>
    <ellipse cx="32" cy="38" rx="14" ry="16" fill="#E8B796"/>
    <ellipse cx="32" cy="40" rx="11" ry="13" fill="#E8B796"/>
    <path d="M22 27.5q4-1 8 1M34 27.5q4-1 8 1" fill="none" stroke="#2C1810" stroke-width="1.5" stroke-linecap="round" opacity=".65"/><path d="M24 33q2-2 4 0M36 33q2-2 4 0" fill="none" stroke="#2C1810" stroke-width="1.8" stroke-linecap="round"/><path d="M26 33.5a2 2 0 004 0M34 33.5a2 2 0 004 0" fill="#2C1810"/><ellipse cx="32" cy="39" rx="2" ry="1.5" fill="#D4956A" opacity=".45"/><path d="M26 44q6 5 12 0" fill="none" stroke="#B5654A" stroke-width="1.8" stroke-linecap="round"/>
    
    
    
  </g>
</svg>
